Coordinates
version=1
nRows=12
nColumns=19
inDegrees=yes

Units are S.I. units (second, meters, Newtons, ...)
If the header above contains a line with 'inDegrees', this indicates whether rotational values are in degrees (yes) or radians (no).

endheader
time	pelvis_tilt	pelvis_list	pelvis_rotation	pelvis_tx	pelvis_ty	pelvis_tz	hip_flexion_r	hip_adduction_r	hip_rotation_r	knee_angle_r	knee_angle_r_beta	ankle_angle_r	hip_flexion_l	hip_adduction_l	hip_rotation_l	knee_angle_l	knee_angle_l_beta	ankle_angle_l
     11.70666667	     -1.74422795	     -7.02911561	     -9.11812971	      2.44442810	      1.04678994	      1.08407813	     20.48822780	     13.40990100	     -1.98096420	      5.89883735	      0.10295413	      5.62082551	    -20.36002429	     -8.93864283	    -17.73857359	     73.05294684	      1.27501445	    -20.84096840
     11.71333333	     -0.88736719	     -7.75340633	     -9.54468641	      2.44255255	      1.04297235	      1.08348121	     19.99168120	     13.99610097	     -2.19156214	      9.08707863	      0.15859944	      5.59386542	    -19.79233965	     -9.74584435	    -17.67069393	     77.13470674	      1.34625460	    -20.35804870
     11.72000000	     -0.84165610	     -7.94896660	    -10.10881808	      2.44023812	      1.03781717	      1.08301576	     20.83847665	     14.12008004	     -2.51350139	     13.26593320	      0.23153421	      5.74117196	    -18.03748535	    -10.10835718	    -17.34433726	     81.32357668	      1.41936417	    -19.72496412
     11.72666667	     -0.46392599	     -8.25155178	    -10.58853289	      2.43787099	      1.03263683	      1.08236219	     21.31787268	     14.23768950	     -2.84701683	     17.60099921	      0.30719539	      6.03361218	    -16.60613332	    -10.59304190	    -17.04107939	     85.34707071	      1.48958739	    -19.07154959
     11.73333333	     -0.14220849	     -8.42954061	    -11.03373736	      2.43537218	      1.02712005	      1.08161147	     21.88940371	     14.18904307	     -3.11336540	     22.09178127	      0.38557432	      6.55515852	    -14.96523457	    -10.99205146	    -16.62611885	     89.26399305	      1.55795058	    -18.40233913
     11.74000000	      0.24609128	     -8.47733017	    -11.36375161	      2.43270404	      1.02161345	      1.08068757	     22.34368075	     13.94477108	     -3.29681328	     26.55141826	      0.46340967	      7.38786432	    -13.20293073	    -11.26830985	    -16.02204480	     93.03550794	      1.62377593	    -17.76175220
     11.74666667	      0.57095672	     -8.40295845	    -11.61141507	      2.42989448	      1.01610589	      1.07967544	     22.74857897	     13.56766005	     -3.33767091	     30.83168431	      0.53811441	      8.54593285	    -11.18127171	    -11.46060269	    -15.26355201	     96.65858715	      1.68701060	    -17.18326624
     11.75333333	      0.92648339	     -8.20340171	    -11.76461783	      2.42687815	      1.01091102	      1.07857469	     22.94795185	     13.04718570	     -3.23690611	     34.82085796	      0.60773862	     10.04720611	     -8.98591320	    -11.51170594	    -14.34035219	    100.08694850	      1.74684679	    -16.65108299
     11.76000000	      1.17771132	     -7.86806045	    -11.85716540	      2.42366100	      1.00600914	      1.07745654	     23.04655317	     12.42465399	     -2.97182456	     38.44047898	      0.67091292	     11.85659965	     -6.47281080	    -11.45026222	    -13.30307706	    103.31284305	      1.80314927	    -16.21291378
     11.76666667	      1.45929395	     -7.42434919	    -11.84110403	      2.42029853	      1.00169022	      1.07627041	     22.84759832	     11.67685181	     -2.61498673	     41.59508269	      0.72597115	     13.93796302	     -3.80592867	    -11.23423063	    -12.13825957	    106.26860860	      1.85473711	    -15.80371554
     11.77333333	      1.60973408	     -6.85973362	    -11.79392578	      2.41677799	      0.99787614	      1.07515580	     22.49657791	     10.85277662	     -2.13916675	     44.23591222	      0.77206232	     16.20865412	     -0.83462534	    -10.89853933	    -10.94558100	    108.95033784	      1.90154212	    -15.42763534
     11.78000000	      1.61922095	     -6.18378759	    -11.71662200	      2.41321093	      0.99458884	      1.07407241	     21.99767413	      9.94073828	     -1.60357203	     46.35390811	      0.80902832	     18.56153120	      2.41134890	    -10.43438705	     -9.76495053	    111.31265079	      1.94277226	    -15.05703697
